<svg id="Capa_1" enable-background="new 0 0 511.999 511.999" height="512" viewBox="0 0 511.999 511.999" width="512" xmlns="http://www.w3.org/2000/svg"><g><path d="m323.257 429.353c-31.891 30.571-67.258 57.525-67.258 57.525s-35.366-26.954-67.258-57.525c-64.777 6.404-110.413 21.78-110.413 39.732 0 23.701 79.546 42.914 177.671 42.914s177.671-19.213 177.671-42.914c.001-17.952-45.636-33.328-110.413-39.732z"/><path d="m362.55 180.16c0-58.752-47.798-106.55-106.55-106.55s-106.55 47.798-106.55 106.55 47.798 106.551 106.55 106.551 106.55-47.799 106.55-106.551zm-160.402 15v-30h38.852v-38.851h30v38.851h38.852v30h-38.852v38.853h-30v-38.853z"/><path d="m436.161 180.161c0-99.341-80.82-180.161-180.162-180.161s-180.161 80.82-180.161 180.161c0 113.872 142.417 237.851 180.161 268.7 37.743-30.848 180.162-154.828 180.162-268.7zm-316.712-.001c0-75.294 61.256-136.55 136.55-136.55s136.55 61.256 136.55 136.55-61.256 136.551-136.55 136.551-136.55-61.257-136.55-136.551z"/></g></svg>