<?xml version="1.0" encoding="utf-8"?>
<!-- Generator: Adobe Illustrator 23.0.1, SVG Export Plug-In . SVG Version: 6.00 Build 0)  -->
<svg version="1.1" xmlns="http://www.w3.org/2000/svg" xmlns:xlink="http://www.w3.org/1999/xlink" x="0px" y="0px"
	 viewBox="0 0 40 60" style="enable-background:new 0 0 40 60;" xml:space="preserve">
<style type="text/css">
	.st0{fill:#44D62C;}
</style>
<g id="Capa_2">
	<g>
		<g>
			<path class="st0" d="M20,56.5L20,56.5c-1.26,0-2.41-0.72-2.96-1.85L3.08,25.94c-0.1-0.21-0.18-0.43-0.24-0.66
				c-0.34-1.4-0.51-2.79-0.51-4.15C2.34,11.41,10.26,3.5,20,3.5s17.66,7.91,17.66,17.63c0,1.36-0.17,2.75-0.51,4.15
				c-0.06,0.23-0.14,0.45-0.24,0.66l-13.96,28.7C22.41,55.78,21.26,56.5,20,56.5z"/>
		</g>
		<g>
			<path d="M20,60L20,60c-1.43,0-2.73-0.81-3.35-2.09L0.85,25.41c-0.12-0.24-0.21-0.49-0.27-0.75C0.19,23.08,0,21.5,0,19.96
				C0,8.96,8.97,0,20,0s20,8.96,20,19.96c0,1.54-0.19,3.12-0.58,4.69c-0.06,0.26-0.15,0.51-0.27,0.75l-15.81,32.5
				C22.73,59.19,21.43,60,20,60z M7.73,22.55L20,47.78l12.27-25.24c0.19-0.89,0.28-1.74,0.28-2.58c0-6.91-5.63-12.53-12.56-12.53
				S7.44,13.05,7.44,19.96C7.44,20.81,7.54,21.66,7.73,22.55z"/>
		</g>
	</g>
</g>
<g id="Layout">
</g>
</svg>
